<svg xmlns="http://www.w3.org/2000/svg" version="1.1" xmlns:xlink="http://www.w3.org/1999/xlink" viewBox="0 0 200 200" width="200" height="200"><metadata><rdf:RDF xmlns:rdf="http://www.w3.org/1999/02/22-rdf-syntax-ns#" xmlns:dc="http://purl.org/dc/elements/1.1/"><rdf:Description><dc:creator>RealFaviconGenerator</dc:creator><dc:source>https://realfavicongenerator.net</dc:source></rdf:Description></rdf:RDF></metadata><rect width="200" height="200" fill="url('#gradient')"></rect><defs><linearGradient id="gradient" gradientTransform="rotate(45 0.5 0.5)"><stop offset="0%" stop-color="#0037ff"></stop><stop offset="100%" stop-color="#7d9c11"></stop></linearGradient></defs><g><g fill="#b98640" transform="matrix(8.865800865800866,0,0,8.865800865800866,6.906164034620502,162.15098086889688)" stroke="#000000" stroke-width="0.35"><path d="M12.24-14.22L12.24-11.57L7.97-11.57L7.97 0L4.54 0L4.54-11.57L0.35-11.57L0.35-14.22L12.24-14.22ZM17.24-4.46L17.24-14.22L20.65-14.22L20.65-4.46Q20.65-3.11 20.02-2.04Q19.39-0.98 18.27-0.39Q17.14 0.20 15.75 0.20L15.75 0.20Q13.43 0.20 12.14-0.98Q10.85-2.15 10.85-4.30L10.85-4.30L14.29-4.30Q14.29-3.32 14.62-2.88Q14.96-2.44 15.75-2.44L15.75-2.44Q16.46-2.44 16.85-2.97Q17.24-3.51 17.24-4.46L17.24-4.46Z"></path></g></g></svg>